<?xml version="1.0" encoding="iso-8859-1"?>
<!-- Generator: Adobe Illustrator 19.0.0, SVG Export Plug-In . SVG Version: 6.00 Build 0)  -->
<svg xmlns="http://www.w3.org/2000/svg" xmlns:xlink="http://www.w3.org/1999/xlink" version="1.1" id="Layer_1" x="0px" y="0px" viewBox="0 0 512 512" style="enable-background:new 0 0 512 512;" xml:space="preserve">
<g>
	<path style="fill:#AFB9D2;" d="M255.999,256c-38.941-38.941-38.941-102.303,0-141.244l77.042-77.042   c38.941-38.941,102.303-38.941,141.244,0s38.941,102.303,0,141.244L397.243,256C358.301,294.94,294.94,294.94,255.999,256z    M448.604,63.394c-24.778-24.778-65.101-24.781-89.883,0l-77.042,77.042c-24.781,24.781-24.778,65.105,0,89.883   s65.101,24.781,89.883,0l77.042-77.042C473.385,128.495,473.382,88.172,448.604,63.394z"/>
	<path style="fill:#AFB9D2;" d="M37.713,474.286c-38.941-38.941-38.941-102.303,0-141.244L114.755,256   c38.941-38.941,102.303-38.941,141.244,0s38.941,102.303,0,141.244l-77.042,77.042C140.015,513.226,76.654,513.226,37.713,474.286z    M230.318,281.68c-24.778-24.778-65.101-24.781-89.883,0l-77.042,77.042c-24.781,24.781-24.778,65.105,0,89.883   c24.778,24.778,65.101,24.781,89.883,0l77.042-77.042C255.099,346.781,255.096,306.458,230.318,281.68z"/>
</g>
<g>
	<path style="fill:#959CB5;" d="M286.585,276.775l28.89-28.89c-12.386-2.19-24.247-8.019-33.795-17.567   c-9.548-9.548-15.377-21.408-17.567-33.795l-28.89,28.89c4.845,11.097,11.709,21.52,20.776,30.585   C265.066,265.064,275.487,271.931,286.585,276.775z"/>
	<path style="fill:#959CB5;" d="M225.415,235.225l-28.889,28.889c12.386,2.19,24.246,8.019,33.793,17.567   c9.548,9.548,15.377,21.409,17.568,33.796l28.89-28.89c-4.845-11.099-11.71-21.521-20.776-30.588   C246.933,246.934,236.512,240.068,225.415,235.225z"/>
	<path style="fill:#959CB5;" d="M281.68,230.318c-12.568-12.569-18.733-29.14-18.551-45.652l-31.434,31.436   c4.696,14.592,12.741,28.333,24.305,39.898c11.564,11.565,25.306,19.609,39.898,24.305l31.434-31.434   C310.819,249.053,294.25,242.888,281.68,230.318z"/>
	<path style="fill:#959CB5;" d="M280.304,295.897c-4.696-14.592-12.741-28.333-24.305-39.898   c-11.564-11.565-25.306-19.609-39.898-24.306l-31.434,31.436c16.513-0.183,33.081,5.981,45.653,18.551   c12.568,12.569,18.733,29.14,18.551,45.652L280.304,295.897z"/>
</g>
<path style="fill:#AFB9D2;" d="M153.276,358.722L153.276,358.722c-7.091-7.091-7.091-18.589,0-25.68l179.765-179.765  c7.091-7.091,18.589-7.091,25.68,0l0,0c7.091,7.091,7.091,18.589,0,25.68L178.957,358.722  C171.865,365.814,160.368,365.814,153.276,358.722z"/>
<path style="fill:#959CB5;" d="M202.073,309.925c-7.092-7.092-7.092-18.589,0-25.68l-48.797,48.797  c-7.092,7.091-7.092,18.589,0,25.68c7.092,7.091,18.589,7.091,25.68,0l48.797-48.797  C220.662,317.016,209.164,317.016,202.073,309.925z"/>
<path d="M281.34,297.596c-4.6,0.969-7.543,5.485-6.574,10.085c6.406,30.386-2.86,61.618-24.786,83.544l-77.042,77.042  c-35.622,35.622-93.585,35.622-129.206,0c-35.622-35.622-35.622-93.584,0-129.206l77.042-77.042  c21.921-21.92,53.148-31.188,83.527-24.79c4.603,0.97,9.116-1.975,10.084-6.575c0.969-4.6-1.975-9.115-6.575-10.084  c-36.034-7.59-73.068,3.406-99.073,29.411l-77.042,77.042c-42.259,42.259-42.259,111.022,0,153.281  C52.824,501.434,80.58,512,108.335,512s55.511-10.565,76.64-31.695l77.042-77.042c26.01-26.011,37.004-63.055,29.407-99.093  C290.455,299.57,285.945,296.627,281.34,297.596z"/>
<path d="M146.455,287.698c7.085-7.087,15.94-12.1,25.608-14.498c4.562-1.133,7.344-5.748,6.212-10.311  c-1.133-4.562-5.75-7.342-10.311-6.212c-12.672,3.144-24.272,9.708-33.546,18.983l-77.042,77.042  c-13.612,13.611-21.109,31.709-21.109,50.96s7.496,37.349,21.109,50.96c13.611,13.612,31.709,21.109,50.96,21.109  c19.25,0,37.349-7.496,50.96-21.109l77.042-77.042c9.288-9.288,15.857-20.907,18.997-33.6c1.128-4.564-1.656-9.177-6.219-10.306  c-4.56-1.127-9.178,1.656-10.306,6.219c-2.395,9.683-7.411,18.552-14.508,25.648l-77.042,77.042  c-10.397,10.397-24.22,16.123-38.922,16.123c-14.703,0-28.526-5.726-38.923-16.123c-10.397-10.397-16.123-24.22-16.123-38.923  s5.726-28.526,16.123-38.922L146.455,287.698z"/>
<path d="M480.304,31.695c-42.259-42.259-111.021-42.261-153.281,0l-77.042,77.042c-26.01,26.011-37.004,63.055-29.407,99.093  c0.969,4.6,5.483,7.544,10.085,6.574c4.6-0.969,7.543-5.485,6.574-10.085c-6.406-30.386,2.86-61.618,24.786-83.544l77.042-77.042  c35.622-35.622,93.585-35.621,129.206,0c35.622,35.622,35.622,93.584,0,129.206l-77.042,77.043  c-21.921,21.921-53.147,31.188-83.527,24.79c-4.602-0.968-9.115,1.975-10.084,6.575c-0.969,4.6,1.975,9.115,6.575,10.084  c7.509,1.582,15.058,2.356,22.544,2.356c28.442,0,55.943-11.18,76.529-31.767l77.042-77.042  C522.563,142.716,522.563,73.954,480.304,31.695z"/>
<path d="M365.542,224.3c-7.085,7.087-15.94,12.1-25.608,14.498c-4.562,1.133-7.344,5.748-6.212,10.311  c0.961,3.875,4.435,6.465,8.254,6.465c0.679,0,1.369-0.082,2.057-0.253c12.672-3.144,24.272-9.708,33.547-18.983l77.042-77.042  c13.612-13.611,21.109-31.709,21.109-50.96s-7.496-37.349-21.109-50.96c-13.611-13.612-31.709-21.109-50.96-21.109  c-19.25,0-37.349,7.496-50.96,21.109l-77.042,77.042c-9.275,9.275-15.839,20.875-18.983,33.546  c-1.133,4.564,1.649,9.179,6.212,10.311c4.564,1.13,9.179-1.649,10.311-6.212c2.398-9.667,7.411-18.522,14.498-25.608l77.042-77.042  c10.397-10.397,24.22-16.123,38.922-16.123c14.703,0,28.526,5.726,38.923,16.123c10.397,10.397,16.123,24.22,16.123,38.923  s-5.726,28.526-16.123,38.922L365.542,224.3z"/>
<path d="M147.257,364.741c5.199,5.2,12.029,7.799,18.859,7.799s13.66-2.6,18.859-7.799l179.765-179.765  c10.399-10.399,10.399-27.319,0-37.719c-10.398-10.399-27.32-10.399-37.719,0L147.257,327.023  C136.858,337.421,136.858,354.342,147.257,364.741z M159.295,339.06L339.06,159.295c1.822-1.822,4.245-2.826,6.821-2.826  c2.577,0,4.999,1.003,6.822,2.826c1.823,1.823,2.826,4.245,2.826,6.822c0,2.576-1.003,4.999-2.826,6.821L172.938,352.703  c-1.822,1.822-4.245,2.826-6.821,2.826c-2.577,0-4.999-1.003-6.822-2.826c-1.823-1.823-2.826-4.245-2.826-6.822  C156.47,343.306,157.473,340.883,159.295,339.06z"/>
<g>
</g>
<g>
</g>
<g>
</g>
<g>
</g>
<g>
</g>
<g>
</g>
<g>
</g>
<g>
</g>
<g>
</g>
<g>
</g>
<g>
</g>
<g>
</g>
<g>
</g>
<g>
</g>
<g>
</g>
</svg>
